<svg width="240" height="240" viewBox="0 0 240 240" fill="none" xmlns="http://www.w3.org/2000/svg">
  <!-- Background circle -->
  <circle cx="120" cy="120" r="120" fill="#1F2937" fillOpacity="0.2"/>
  
  <!-- Chat bubbles -->
  <rect x="40" y="80" width="100" height="60" rx="12" fill="#4B5563"/>
  <rect x="100" y="100" width="100" height="60" rx="12" fill="#6B7280"/>
  <rect x="60" y="120" width="100" height="60" rx="12" fill="#4B5563"/>
  
  <!-- Dots -->
  <circle cx="80" cy="110" r="4" fill="#9CA3AF"/>
  <circle cx="100" cy="110" r="4" fill="#9CA3AF"/>
  <circle cx="120" cy="110" r="4" fill="#9CA3AF"/>
  
  <!-- Sparkles -->
  <path d="M180 40 L180 60 M170 50 L190 50" stroke="#8B5CF6" strokeWidth="4" strokeLinecap="round"/>
  <path d="M40 160 L40 180 M30 170 L50 170" stroke="#8B5CF6" strokeWidth="4" strokeLinecap="round"/>
  <path d="M200 140 L200 150 M195 145 L205 145" stroke="#8B5CF6" strokeWidth="2" strokeLinecap="round"/>
  
  <!-- AI icon -->
  <circle cx="150" cy="130" r="15" fill="#8B5CF6"/>
  <path d="M145 130 L155 130 M150 125 L150 135" stroke="white" strokeWidth="2" strokeLinecap="round"/>
</svg> 