<?xml version="1.0" standalone="no"?>
<!DOCTYPE svg PUBLIC "-//W3C//DTD SVG 20010904//EN"
 "http://www.w3.org/TR/2001/REC-SVG-20010904/DTD/svg10.dtd">
<svg version="1.0" xmlns="http://www.w3.org/2000/svg"
 width="866.000000pt" height="288.000000pt" viewBox="0 0 866.000000 288.000000"
 preserveAspectRatio="xMidYMid meet">

<g transform="translate(0.000000,288.000000) scale(0.100000,-0.100000)"
fill="#000000" stroke="none">
<path d="M2571 2562 c-5 -10 -28 -69 -51 -132 -118 -320 -266 -538 -470 -691
-93 -69 -263 -153 -425 -208 -84 -29 -141 -54 -143 -63 -4 -19 20 -30 153 -73
314 -103 550 -274 709 -515 71 -108 119 -210 187 -405 22 -60 43 -113 47 -117
17 -17 35 15 81 143 27 74 63 165 80 203 17 38 31 70 31 71 0 1 -31 5 -70 9
-131 12 -250 68 -348 165 -110 108 -162 234 -162 391 0 193 80 341 238 441
139 88 353 92 484 8 198 -127 232 -375 74 -533 -121 -121 -354 -92 -384 49 -3
16 -6 36 -5 43 0 6 1 21 2 31 0 10 9 29 20 42 l19 23 0 -42 c1 -81 61 -128
151 -120 92 9 154 84 153 184 -1 130 -119 223 -266 212 -173 -14 -306 -171
-306 -360 0 -169 102 -338 248 -412 50 -26 150 -56 183 -56 9 0 32 24 52 54
94 142 225 265 380 357 90 54 107 58 107 30 0 -10 18 -54 39 -98 54 -107 130
-182 235 -233 209 -101 443 -64 601 95 251 250 203 697 -96 888 -76 48 -140
68 -239 74 -106 7 -179 -8 -272 -54 -97 -49 -174 -128 -227 -233 -22 -45 -41
-89 -41 -96 0 -11 -13 -8 -52 12 -221 111 -405 305 -531 559 -25 50 -59 128
-75 175 -58 165 -74 200 -87 200 -8 0 -19 -8 -24 -18z m1369 -747 c81 -28 136
-79 177 -162 35 -70 38 -84 41 -179 4 -89 1 -113 -19 -170 -40 -114 -123 -186
-234 -204 -63 -10 -135 0 -193 27 -60 28 -126 102 -151 166 -33 91 -31 100 37
121 31 10 70 25 86 33 24 13 26 17 14 29 -7 8 -45 25 -83 38 l-70 23 2 36 c6
95 112 216 214 246 52 14 132 13 179 -4z"/>
<path d="M6713 2004 c-18 -9 -39 -31 -48 -51 -47 -99 54 -206 151 -160 91 44
89 175 -3 213 -41 18 -60 17 -100 -2z"/>
<path d="M7290 1903 c-18 -48 -56 -158 -85 -243 -30 -85 -99 -283 -154 -440
-56 -156 -101 -288 -101 -293 0 -4 48 -6 108 -5 l107 3 35 108 34 107 214 -2
213 -3 37 -107 37 -108 107 0 c60 0 108 2 108 5 0 8 -144 416 -264 745 l-114
315 -125 3 -125 3 -32 -88z m195 -248 c15 -44 47 -134 71 -199 24 -66 41 -123
38 -128 -9 -14 -284 -10 -289 5 -3 6 20 84 51 172 31 88 63 182 71 210 17 57
19 55 58 -60z"/>
<path d="M8062 1458 l3 -533 103 -3 102 -3 0 536 0 535 -105 0 -105 0 2 -532z"/>
<path d="M4805 1698 c-16 -6 -49 -24 -72 -40 l-43 -29 0 31 0 30 -100 0 -100
0 2 -382 3 -383 97 -3 97 -3 3 258 c3 252 4 259 26 291 59 82 184 84 238 5 17
-25 19 -52 22 -291 l3 -263 97 3 96 3 1 250 c0 233 1 252 20 285 55 94 210 91
251 -5 11 -27 14 -89 14 -285 l0 -250 100 0 100 0 0 283 c0 161 -4 298 -10
319 -18 63 -70 130 -125 158 -42 21 -63 25 -140 25 -103 0 -157 -20 -215 -80
l-33 -35 -34 40 c-58 68 -204 101 -298 68z"/>
<path d="M6153 1700 c-34 -8 -118 -54 -128 -70 -13 -21 -25 -9 -25 25 l0 35
-95 0 -95 0 0 -385 0 -386 98 3 97 3 5 257 c5 239 6 258 26 285 28 38 80 63
132 63 61 0 100 -24 123 -73 17 -38 19 -68 19 -289 l0 -248 95 0 c69 0 95 3
95 13 0 6 0 140 0 296 -1 263 -2 288 -21 330 -42 96 -129 152 -234 150 -33 -1
-74 -4 -92 -9z"/>
<path d="M6670 1305 l0 -385 95 0 95 0 0 385 0 385 -95 0 -95 0 0 -385z"/>
</g>
</svg>
