<svg width="24" height="24" viewBox="0 0 24 24" fill="none" xmlns="http://www.w3.org/2000/svg">
  <path d="M16.5 6.5c0-.5-.2-1-.5-1.3-.3-.4-.8-.6-1.3-.6-.2 0-.4 0-.6.1-.2-.4-.5-.7-.9-.9-.4-.2-.8-.3-1.2-.3-.9 0-1.7.5-2.2 1.2-.5-.2-1-.3-1.5-.3-1.9 0-3.4 1.5-3.4 3.4 0 .3 0 .6.1.9-.8.5-1.3 1.4-1.3 2.4 0 1.6 1.3 2.9 2.9 2.9h8.4c1.3 0 2.4-1.1 2.4-2.4 0-1-.6-1.9-1.5-2.3.2-.3.3-.7.3-1.1-.1-.2-.1-.4-.2-.7z" fill="#95BF47"/>
  <text x="12" y="18" text-anchor="middle" font-size="6" fill="#95BF47" font-weight="600">Shopify</text>
</svg> 